<svg xmlns="http://www.w3.org/2000/svg" width="320" height="445" viewBox="0 0 320 445">
  <defs><linearGradient id="bg" x1="0" x2="1"><stop offset="0" stop-color="#10232d"/><stop offset="1" stop-color="#02080d"/></linearGradient></defs>
  <rect width="320" height="445" fill="url(#bg)"/>
  <circle cx="166" cy="122" r="73" fill="#e1b993"/>
  <path d="M95 74c26-53 122-56 151 5 21 43 2 111-25 153-2-61-15-114-58-124-44-10-62 46-77 105-23-48-17-103 9-139z" fill="#c8c1b5"/>
  <circle cx="142" cy="126" r="7" fill="#1c2327"/><circle cx="184" cy="126" r="7" fill="#1c2327"/>
  <path d="M142 171c25 18 49 18 72 0" fill="none" stroke="#62402f" stroke-width="5" stroke-linecap="round"/>
  <path d="M62 445c5-107 49-183 107-183s102 76 107 183z" fill="#111"/>
  <path d="M151 445l18-158 24 158z" fill="#a6192e"/>
  <path d="M124 265l45 37 44-37 23 180H94z" fill="#242424"/>
</svg>
